<svg width="49" height="48" viewBox="0 0 49 48" fill="none" xmlns="http://www.w3.org/2000/svg">
<circle cx="24.5" cy="24" r="24" fill="#A73636"/>
<path d="M29.0626 23.5L33.0547 19.508C34.3151 18.2475 34.3151 16.2057 33.0547 14.9453C31.7943 13.6849 29.7525 13.6849 28.492 14.9453L24.5 18.9374L20.508 14.9453C19.2475 13.6849 17.2057 13.6849 15.9453 14.9453C14.6849 16.2057 14.6849 18.2475 15.9453 19.508L19.9374 23.5L15.9453 27.492C14.6849 28.7525 14.6849 30.7943 15.9453 32.0547C16.5755 32.6849 17.4016 33 18.2256 33C19.0495 33 19.8756 32.6849 20.5058 32.0547L24.4979 28.0626L28.4899 32.0547C29.1201 32.6849 29.9462 33 30.7702 33C31.5963 33 32.4202 32.6849 33.0504 32.0547C34.3108 30.7943 34.3108 28.7525 33.0504 27.492L29.0626 23.5Z" fill="white"/>
</svg>
