<svg width="29" height="30" viewBox="0 0 29 30" fill="none" xmlns="http://www.w3.org/2000/svg">
<path d="M19.8548 8.92133L18.347 6.53902C18.0293 6.16859 17.5937 5.9375 17.1055 5.9375H11.8945C11.4063 5.9375 10.9707 6.16859 10.653 6.53902L9.1452 8.92133C8.82744 9.29232 8.41793 9.5625 7.92969 9.5625H4.53125C4.05055 9.5625 3.58953 9.75346 3.24962 10.0934C2.90971 10.4333 2.71875 10.8943 2.71875 11.375V22.25C2.71875 22.7307 2.90971 23.1917 3.24962 23.5316C3.58953 23.8715 4.05055 24.0625 4.53125 24.0625H24.4688C24.9495 24.0625 25.4105 23.8715 25.7504 23.5316C26.0903 23.1917 26.2812 22.7307 26.2812 22.25V11.375C26.2812 10.8943 26.0903 10.4333 25.7504 10.0934C25.4105 9.75346 24.9495 9.5625 24.4688 9.5625H21.127C20.637 9.5625 20.1726 9.29232 19.8548 8.92133Z" stroke="black" stroke-width="2" stroke-linecap="round" stroke-linejoin="round"/>
<path d="M14.5 20.4375C17.0025 20.4375 19.0312 18.4088 19.0312 15.9062C19.0312 13.4037 17.0025 11.375 14.5 11.375C11.9975 11.375 9.96875 13.4037 9.96875 15.9062C9.96875 18.4088 11.9975 20.4375 14.5 20.4375Z" stroke="black" stroke-width="2" stroke-miterlimit="10"/>
<path d="M7.02344 9.44922V8.20312H5.66406V9.44922" stroke="black" stroke-linecap="round" stroke-linejoin="round"/>
</svg>
